<?xml version='1.0' encoding='utf-8'?>
<svg xmlns="http://www.w3.org/2000/svg" version="1.1" id="Layer_1" x="0px" y="0px" viewBox="0 0 4301.059 4301.059" enable-background="new 0 0 5000 4301.059" stroke="#E8BD70" fill="#E8BD70"> <g> <path d="M655.094,1258.955c-26.884,18.928-40.245,17.06-46.008-6.432c-16.704-68.1-99.179-111.306-212.47-111.306 c-109.453,0-99.006-36.289,37.18-129.149c103.12-70.314,103.763-107.007,2.096-119.405 c-120.658-14.714-248.203-69.902-348.274-150.699C15.556,683.784,20.33,622.241,2.019,1845.547 c-8.323,556.012,10.879,2435.814,24.995,2446.916c13.735,10.803,23.213,11.331,37.8,2.105c13.307,0,12.569-43.068,5.027-1580.463 c-7.922-1614.989,8.268-1105.362,8.856-1625.803c0.205-179.173,2.726-260.931,8.053-260.931c4.266,0,20.007,7.589,34.983,16.866 c54.343,33.665,198.678,92.616,226.758,92.616c91.143,0-35.967,78.989-100.914,171.521l-24.804-27.681 c-40.639-45.35-38.629-85.451,4.284-85.451c36.474,0,17.162-50.471-24.927-65.143c-91.041-31.737-100.098,116.137-12.089,197.387 l29.821,27.53c-32.958,47.029-58.662,82.066-67.389,227.666c-6.511,108.647-16.105,156.237-32.786,162.638 c-13.04,5.004-14.375,34.697-2.112,46.962c22.069,22.069,86.126-6.949,86.126-39.015c0-15.762,24.913-12.852,40.836,4.77 c80.264,88.823,250.963,18.505,154.406,84.002c-38.442,26.076-69.126,33.864-127.611,32.386 c-88.635-2.239-184.579,85.034-118.723,107.991c25.211,8.788,27.951,19.236,7.867,29.984c-53.14,28.44-24.478,51.261-51.5,110.814 c-16.543,36.458-18.707,78.249-5.886,113.703c6.773,18.73,6.862,27.747,0.38,38.124c-36.23,58.013-15.282,197.486,29.662,197.486 c51.09,0,65.922-42.135,23.124-65.689c-41.302-22.731-34.168-76.314,11.178-83.975c50.274-8.494,73.875-34.753,71.281-79.304 c-3.049-52.348-32.672-68.182-73.544-39.308c-17.156,12.119-26.898-2.449-27.051-40.449 c-0.299-73.499,76.83-159.665,218.553-244.172c89.31-53.254,237.264-223.477,288.745-332.205 c22.973-48.52,43.682-69.068,72.842-72.276c19.444-2.139,22.148-5.426,24.136-29.34 C746.437,1237.21,704.362,1224.269,655.094,1258.955z M551.484,1418.568c-2.539-12.697-8.997-21.896-15.371-21.896 c-11.114,0-14.491,9.654-21.481,61.42c-6.399,47.385-52.139,83.484-120.519,95.118c-29.665,5.046-98.969-30.291-123.996-57.105 c-18.684-20.018-16.075-23.459,21.166-27.913c33.645-4.025,25.688-44.518-9.883-50.3c-35.067-5.7-42.658-16.611-38.787-55.753 c2.026-20.48-0.328-33.689-6.982-39.212c-25.931-21.52,20.868-150.766,51.361-141.845c8.382,2.453,32.485,6.441,53.559,8.862 c45.371,5.213,45.879,6.766,12.755,38.872c-94.556,91.648-48.6,251.923,68.453,238.729c40.922-4.613,59.294-24.561,59.294-64.385 c0-54.94-46.416-20.271-88.243,8.114l-17.919-17.918c-58.075-58.074,32.969-199.07,118.217-183.078 c38.447,7.213,95.554,62.314,64.581,62.314c-6.021,0-10.948-2.786-10.948-6.19c0-32.916-85.158-33.854-117.716-1.296 c-41.016,41.016-25.824,69.014,25.756,47.462c46.275-19.334,112.917,41.781,113.598,104.176 C568.699,1446.54,557.325,1447.769,551.484,1418.568z"/> <path d="M1009.728,862.167C900.174,546.537,839.591,292.092,624.97,54.531c-84.577-93.616-246.116-61.386-281.326,56.131 c-33.224,110.896,58.034,229.507,152.576,198.305c75.028-24.761,63.934-153.079-13.234-153.079 c-53.018,0-66.762,59.998-14.729,64.305c33.625,2.783,39.55,27.244,8.489,35.04c-65.976,16.559-108.954-106.255-55.79-159.42 C548.529-31.76,750.668,240.438,928.185,778.841l40.55,122.986c-156.089-27.837-456.152-128.965-571.317-180.959 C155.504,611.652,54.201,471.435,151.583,380.598c45.254-42.213,90.82-34.463,137.624,23.404 c27.016,33.402-5.554,47.442-35.074,15.121c-40.293-44.116-68.567-6.205-34.462,46.211c48.468,74.497,155.68,27.603,134.037-58.627 c-27.891-111.13-218.602-142.675-265.254-43.874C-20.754,594.115,241.606,785.442,886.116,944.531 c52.186,12.882,101.452,26.071,109.482,29.308c29.664,11.963,40.143,8.057,40.143-14.962 C1034.393,958.876,1038.819,945.978,1009.728,862.167z"/> <path d="M364.249,350.268c0,2.537,43.126,45.953,95.836,96.483c196.285,188.166,189.898,224.03,198.001,313.356l44.675,3.161 c91.398,6.467,143.208,61.171,143.208,31.165c0-6.66-3.904-17.442-7.735-23.721c-9.76-15.988-45.744-118.992-54.304-142.936 c-111.375-23.734-110.541-15.821-303.764-192.709C393.874,356.069,364.249,334.396,364.249,350.268z"/> <polygon points="612.408,754.053 612.408,754.053 612.408,754.054 "/> <path d="M461.717,668.99c-19.95,11.782-8.557,24.95,50.332,58.172c56.974,32.141,100.358,43.767,100.358,26.892 c-0.001-37.372-112.825-234.439-166.869-291.468c-58.319-61.538-88.077-76.951-46.735-24.206 C484.686,547.948,509.938,640.51,461.717,668.99z"/> <path d="M4974.442,21.443c-19.749-14.746-25.528-14.874-543.299-12.074c-1984.611,10.734-3402.42-3.106-3659.84,0.544 c11.534,18.117,20.752,35.87,60.951,71.634c59.155,52.629,130.852,230.455,146.952,364.469 c8.045,66.98,20.093,86.813,33.048,54.411c23.432-58.607,161.73-213.159,190.741-213.159c15,0,22.369,51.99,22.461,158.474 c0.073,76.966,18.986,129.809,62.874,175.613c30.113,31.428,32.062,35.958,32.062,74.49c0,63.222,43.65,84.403,61.861,30.018 c0.73-0.547,16.685-52.615,86.199-73.403c88.719-26.53,168.606-82.783,261.772-184.329 c214.721-234.033,365.103-339.075,358.604-250.487c-2.553,34.824,41.216,34.683,76.144-0.245c7.824-7.824,13.963-8.48,24.844-2.657 c24.231,12.968,52.722,5.373,63.34-16.886c11.606-24.326,34.249-26.29,51.892-4.502c16.442,20.305,44.473,8.029,44.473-19.476 c0-82.167-266.406-66.676-383.902,22.324c-13.774,10.434-35.17,18.027-54.741,19.427c-31.382,2.245-32.182,2.935-34.393,29.669 c-2.933,35.433-13.142,34.763-27.782-1.825c-22.251-55.609-58.519-43.914-89.506,28.864 c-21.045,49.426-27.477,58.261-43.793,60.153c-18.033,2.092-19.036,4.301-17.564,38.712c2.202,51.511-15.07,98.243-48.303,130.695 c-37.871,36.98-45.092,22.635-16.043-31.868c26.232-49.216,30.931-126.423,10.904-179.113 c-17.556-46.185-16.615-50.015,13.539-55.112c40.411-6.831,56.589-24.85,56.589-63.029c0-34.984-15.765-49.597-31.371-29.079 c-17.299,22.745-46.273,27.239-119.751,18.573c-100.918-11.901-197.735-5.314-266.887,18.159 c-69.754,23.677-64.132,24.058-83.362-5.638c-35.69-55.116-162.542-66.155-181.856-15.824 c-14.549,37.914,66.739,89.794,96.657,61.689c19.981-18.77,42.474-13.718,35.583,7.993 c-4.368,13.764-89.048,99.927-109.704,111.626c-12.621,7.148-14.672,3.211-25.33-48.624 c-9.086-44.189-49.71-146.353-69.342-174.381c-6.055-8.645-11.01-17.538-11.01-19.762c0-2.223,209.384-2.917,465.297-1.541 c664.833,3.575,1233.332-12.113,2257.147-17.019C5070.677,72.239,5044.051,73.413,4974.442,21.443z M1305.792,238.534 c48.153-16.126,138.677-22.809,138.677-10.237c0,3.695,9.671,8.843,21.49,11.439c54.55,11.981,89.547,87.707,62.446,135.117 c-15.287,26.743-13.68,43.793,4.13,43.793c40.865,0,52.42-35.144,67.934-69.338l2.935,21.752 c4.931,36.557-19.828,104.088-46.865,127.827c-57.587,50.563-157.758,48.104-131.13-3.219 c18.473-35.608-6.418-62.424-57.945-62.424h-26.877l3.081,48.374c4.125,64.774,35.393,97.602,92.967,97.602 c34.306,0,52.601,8.625,37.757,17.799c-16.228,10.03-71.356,11.027-91.96,1.663h-0.004 c-116.192-52.807-106.087-223.827,13.224-223.827c26.324,0,46.312,15.531,37.773,29.349 c-20.435,33.065,24.842,88.077,48.472,58.894c90.661-111.961-84.476-200.659-192.452-97.468 c-29.712,28.395-25.357,26.604-31.096-111.205L1305.792,238.534z"/> <path d="M369.119,444.19l-5.356,24.663c-12.958,59.658-48.534,85.658-105.517,77.113c-29.199-4.379-32.677-3.387-32.677,9.319 c0,20.893,76.172,85.297,114.482,96.797c34.815,10.45,27.383,11.385,85.925-42.263C391.855,494.199,390.862,494.556,369.119,444.19 z"/> <path d="M415.483,340.183c0.314,19.917,170.577,142.339,245.209,176.311c23.621,10.752,52.8,24.127,64.844,29.722 c23.967,11.134,54.727,14.298,54.766,5.632c-0.73,0,3.438,7.884-16.242-69.065c-18.17-71.042-10.672-66.727-83.863-48.258 c-53.13,13.407-86.796,3.011-170.249-52.575C433.688,331.154,415.211,322.984,415.483,340.183z"/> <path d="M652.052,240.829c-49.767-58.298-54.245-59.191-54.245-10.822c0,42.021-41.303,93.631-75.119,93.866 c-8.863,0.058-20.64,2.978-26.173,6.483c-41.959,26.577,124.598,60.114,174.282,35.092l-0.002-0.001 C708.121,346.648,700.793,297.924,652.052,240.829z"/> <path d="M359.681,284.583c-35.631-25.968-80.604,13.223-45.84,39.949c21.846,16.795,34.553,17.225,51.656,1.747 C383.325,310.144,382.031,300.872,359.681,284.583z"/> <path d="M83.826,249.905c6.905,56.162,13.773,58.712,72.405,26.881c16.431-8.92,32.169-10.762,63.048-7.38 c68.809,7.536,60.612-16.445-15.606-45.654C107.655,186.956,76.91,193.665,83.826,249.905z"/> <path d="M291.256,197.602c2.596-39.025,7.491-59.08,16.969-69.53l0.002,0c25.742-28.381,14.027-54.949-27.262-61.828 c-53.454-8.905-62.38,21.834-32.506,111.948C274.946,258.088,286.873,263.497,291.256,197.602z"/> <path d="M75.303,130.342l8.238,36.494c46.182,3.985,91.188,4.512,117.333,23.995c23.258,17.333,31.995,19.789,31.995,8.991 c0-3.936-11.351-24.902-25.225-46.59c-27.397-42.826-24.048-46.688-17.021-89.987C158.291,59.866,104.5,55.819,75.06,41.848 C20.533,15.973,57.246,50.363,75.303,130.342z"/> </g> </svg>