<?xml version='1.0' encoding='utf-8'?>
<svg xmlns="http://www.w3.org/2000/svg" version="1.1" id="Layer_1" x="0px" y="0px" viewBox="0 0 5000 504.4223" enable-background="new 0 0 5000 504.4223" stroke="#E8BD70" fill="#E8BD70"> <g> <g> <path d="M4861.6465,363.9798c-39.2593-5.999-77.519-3.7423-105.8037-29.5974c-10.6953-9.7765-11.2515-13.3941-3.3662-21.9024 c22.6226-24.4106,26.6904-61.0298,3.0469-86.3052c-23.8838-25.5327-67.7764-25.5934-91.7715,0.0943 c-18.7061,20.0255-20.8179,50.4132-7.2798,73.7166c7.1211,12.2574,5.0527,13.2274-40.8511,19.1607 c-92.8809,12.005-142.3086-19.4652-148.4331-19.4652c-9.7466-0.0565-21.7549-17.0775-27.5156-23.6264 c-10.9248-12.4196-20.0366-26.2402-29.0879-40.0443c-8.9639-13.6714-18.064-26.5992-28.4653-39.2162 c-2.7363-3.319-20.2725-19.8793-18.666-24.7072c1.8975-5.6985,36.4473,4.2591,56.4102-34.0399 c10.6206-20.3762,8.6675-44.5846-9.3765-60.6266c-29.5215-26.2458-61.3413-6.8246-79.1514,20.8604 c-15.5396,24.155-13.7163,14.2576-19.2217,20.891c-11.6172,13.9993-90.5991-26.4053-195.7246-9.4894 c-31.0203,4.9915-47.6011,5.8313-49.0054,8.1034c-1.9111,3.091-27.8877,7.673-48.043,17.6939 c-3.5801,1.7798-7.4333,3.2362-8.5632,3.2362c-7.7605,0-93.0581,45.7643-106.0708,56.91 c-8.0024,6.8538-7.9424-1.8333-8.2188-19.6019c-0.9333-60.1029-30.3923-63.7294,16.1216-63.765 c39.9622-0.0225,53.447-7.194,65.105-34.6243c6.0527-14.2418,6.2415-15.7081,3.4731-26.9991 c-7.1855-29.3088-22.1643-47.5839-52.926-50.0997c-22.5852-1.8474-30.6411,0.6545-45.9019,14.2564 c-18.8196,16.7729-15.416,5.6543-27.9978,28.5779c-10.749,19.5848-9.3787,19.2741-32.9165,7.4665 c-39.0708-19.5986-85.1201-24.9777-127.8538-16.2825c-19.9448,4.0583-40.8647,11.0466-59.2937,19.7158 c-1.6125,0.7586-29.4338,17.2733-28.272,18.4826c-5.4875-5.7109-12.1367-15.3413-19.7681-18.5067 c-9.7351-4.0381-25.7976-1.1193-35.8286,0.6096c-26.8635,4.6302-44.519,18.3387-66.2561,33.0517 c-9.3186,6.3076-18.5789,11.0289-27.0479,19.5437c-15.699,15.7833-23.6616,20.076-45.1885,24.3591 c-15.084,3.0015-58.7275,15.3359-42.2354,27.8527c10.1443,7.6992,46.7627,24.541,59.4797,27.3559 c30.8394,6.8271,16.7498,9.926,29.9626,35.7619c23.1648,45.2961,60.4746,47.7561,90.5229,50.0287 c3.7478,4.0479,24.156,26.8579,27.6667,26.8579c10.3499,0,14.1548,31.0847,30.885-10.3469 c29.2578-72.4523,83.4519-106.8046,61.7236-155.3217c-9.1294-20.3848-17.728-20.9768-17.728-26.3311 c0-3.2834,27.2065-18.0769,68.6694-22.9246c16.2815-1.9038,31.8264-5.9877,65.8054,12.2622 c126.8777,68.1556,31.4534,207.1206-113.7971,228.1035c-25.7551,3.7202-140.4316,8.7102-200.5581-18.1823 c-14.8872-6.6585-99.5461-35.3892-194.9065-88.5939c-63.2263-35.2777-106.3455-45.0091-59.0771-44.6767 c31.5449,0.2243,44.8572-4.4442,62.7368-22c13.429-13.1856,14.4531-14.9371,15.9534-27.2823 c2.8928-23.8026-3.7358-41.3893-21.729-57.6471c-19.5659-17.6791-49.9619-17.8452-71.9539-4.6254 c-12.0579,7.2482-19.0215,17.244-25.0466,29.5954c-2.0813,4.2668-13.0032,34.4281-19.8967,32.2597 c-13.2942-4.1815,0.6174,2.021-70.6792-17.4244c-90.5767-24.7064-180.3906-68.0211-389.7319-55.0385 c-84.8804,5.2633-61.0745,13.6619-126.4617,53.6449c-24.0574,14.7102-42.96,31.7063-52.4285,34.6288 c-13.9539,4.3055-85.1045,43.6343-133.8152,48.3168c-16.8933,1.6238-33.603,3.215-51.127,9.0563 c-2.5859,3.8388-1.9578,8.9502,1.6931,13.7737c2.9656,3.918,5.3198,4.2132,22.835,2.8671 c133.6221-10.2695,198.668-103.7878,431.2739-102.5857c27.2329,0.1409,103.2942,4.1484,105.5825,5.5627 c2.7283,1.6863-7.3301,30.8259-14.0479,40.6959c-16.7649,24.6314-2.1047,25.3657-37.5012,18.3158 c-19.3413-3.8523-36.2776-3.04-48.3982,2.3215c-12.248,5.4176-31.8579,22.5861-36.8708,32.2798 c-4.3218,8.3578,3.2915,6.4356-43.3535,5.2515c-43.1003-1.0937-50.3303-1.6775-33.8745,12.9257 c14.4851,12.8544,11.5796,20.0743-5.4705,13.5918c-3.3911-1.2891-16.1018-3.3743-28.2458-4.6337 c-41.9231-4.3471-82.5891,13.4498-113.1677,43.9206c-11.0232,10.9843-15.9707,28.9218-15.9707,57.905 c0,24.6106,1.408,29.7725,12.8035,46.9454c10.0588,15.1582,19.3806,20.8242,38.78,23.5715 c29.3005,4.1493,23.3232-4.7099,34.7432-9.051c11.3406-4.3115,19.3042-27.8852,11.5847-34.2917 c-4.2583-3.5336-8.6836-1.6301-38.0715,7.0938l-7.187-5.1176c-14.2756-10.165-17.4265-29.8803-7.6201-47.6783 c26.8215-48.6788,72.1938-48.0613,128.5649-29.194c27.4683,9.1938,31.7217,12.2647,49.374,35.6496 c20.4878,27.1403,46.2312,52.1405,59.5854,57.8649c26.522,11.3683,69.9053,12.4337,88.6548-9.8495 c7.7769-9.2421,3.3618-8.645,19.2429-1.2215c36.8765,17.2377,103.252,14.8708,121.6931,8.3892 c17.9136-6.2961,23.1743-5.9922,26.0242,1.5039c3.5049,9.2183,18.731,33.574,23.9768,38.3536 c7.7117,7.0256,34.5725,19.4778,45.5752,21.128c31.0862,4.6611,68.3145-24.7957,68.2612-56.2426 c-0.0308-30.2833-29.177-64.074-56.7083-65.7457c-12.0513-0.7318-14.2939-4.4024-7.3228-11.9855 c36.1497-39.3209,19.6699-87.9632,25.0083-87.9632c1.8481,0,41.8647,21.0515,51.6794,29.8545 c5.9995,5.3809,123.9321,69.2743,124.1626,69.3987c26.4731,14.2989,138.7263,54.9413,173.5974,60.5243 c34.197,5.4754,87.1362,8.7571,120.5425,7.4727c43.0667-1.6557,39.2598-6.9716,39.259,9.9369 c-0.001,29.7043,37.2048,52.5092,64.6533,42.9948c15.8062-5.4789,25.2437-22.6706,26.7747-38.6353 c0.6709-6.997-7.73-32.8364,1.1191-35.9514c95.7964-33.7188,211.7786-198.7928,421.3472-206.9045 c47.7964-1.8497,64.9668,1.5813,101.1694,20.2157c27.0371,13.9165,51.1143,32.4336,47.0454,36.1809 c-4.7456,4.3702-78.2876-10.8909-117.6172,1.3088c-27.8335,8.6342-46.6924,48.0054-46.6924,59.2267 c0,9.0558-4.2788,10.0426-24.3882,5.6239c-48.9824-10.7631-103.4583,2.7793-129.1826,32.1142 c-15.5134,17.6913-14.249,9.7736-22.9319,14.6488c-10.7078,6.0118-34.5889,14.3064-49.0767,17.0458 c-18.1333,3.4287-29.3435,2.1034-46.4045-5.4864c-47.2329-21.0135-9.1616,48.414,26.854,48.2343 c19.2568-0.0938,49.2607-6.5482,68.2664-14.6853c2.6909-1.1522,4.718,0.8552,7.8279,7.7512 c5.6631,12.5583,7.7229,13.9005,27.0439,17.6176c24.5894,4.7287,56.9626-11.0951,56.9048-39.8397 c-0.0701-35.3889-35.6782-38.6156,24.8081-38.4847c31.4316,0.0668,31.5928,0.0946,47.6333,8.1542 c69.2183,34.7771,56.3633,58.383,132.21,58.383c53.2412,0,80.6162-9.8631,128.1167-61.2238 c96.8599,58.8044,235.4736,54.2694,291.7305,21.0774c46.5825,34.2877,63.2524,50.209,113.2456,53.1431 c55.8745,3.2793,100.3008,2.3409,136.1499,40.4784c8.2715,8.7997,13.4888,18.157,15.8169,30.3123 c1.4741,7.6989-3.646,13.6873,0.0239,20.3166c3.8042,6.8708,15.8135,9.5855,22.7246,10.6263l9.9697,1.5013 C4996.0566,441.6609,4996.9678,384.6581,4861.6465,363.9798z M3519.1948,251.3734 c-34.9348-13.4721-42.875-36.7055-43.7185-36.7055c-12.144-23.2995-1.1729-20.3041,23.259-21.3884 c46.6729-2.0709,24.3901-3.572,44.5737,58.3589C3545.5217,258.4274,3537.2505,258.3365,3519.1948,251.3734z M3643.9324,129.6583 c7.1804,8.5334,13.3308,28.2167,11.3667,36.3793c-2.2363,9.2963-13.9878,31.9289-25.8069,49.7039 c-15.187,22.8378-36.9727,70.1288-40.4758,70.1288c-3.8821,0-24.1755-21.5461-24.1755-25.6685 c0-6.8964-19.5562-34.5457-11.574-78.3315c5.2942-29.045,33.2822-63.9985,55.7622-69.6407 C3616.1924,110.4319,3636.1326,120.3889,3643.9324,129.6583z M3542.6143,157.166c-4.5264,16.2807,0.0444,12.2823-19.9985,15.7827 c-63.8489,11.1497-107.0356-11.4578-112.5366-11.4578c-7.4353-3.3878-8.4604-11.2793-1.4651-11.2793 c37.2598,0,127.2791-107.3065,175.3933-69.8214c5.8984,4.5952,10.7241,9.575,10.7241,11.0662 C3594.7314,99.9882,3552.7566,120.6836,3542.6143,157.166z M2904.9417,116.8712c2.6792-1.656,37.354,5.5074,71.2778,14.7246 c89.9355,24.436,125.5288,55.2198,125.208,108.2887c-0.1602,26.4401-17.0457,60.0753-38.7178,70.8989 c-5.78,2.8865-11.0913,6.1903-11.8027,7.3414c-5.7104,9.2399-86.7263,20.9859-89.7842,13.0175 c-2.8699-7.4795,29.5974-46.9458,11.6389-106.6131C2962.4993,190.4295,2893.9587,123.6583,2904.9417,116.8712z M2891.2356,170.602 c1.502-5.36,9.3699-24.9426,14.946-20.3148c4.7241,3.9208,0.5662,9.541,10.8857,21.9287 c32.71,39.2605,31.8662,47.8857,36.5781,58.0226c17.9287,38.5716-6.2354,97.0196-15.6606,97.0196 c-5.0005,0-22.4038-11.9586-39.7019-13.6976c-12.189-1.226-12.5085-1.4494-18.2358-12.7444 C2846.2371,234.1401,2887.7073,183.1954,2891.2356,170.602z M2795.7634,229.2311c-22.4058-9.1566-27.0073-10.9253-2.1702-29.8691 c12.344-9.4155,45.9543-9.209,56.6626-4.7345c11.6392,4.8633,7.2998-1.5189-1.7813,53.8793 c-1.2996,7.9277-5.5398,9.6559-10.1274,4.1276C2834.0078,247.4061,2815.939,237.4757,2795.7634,229.2311z M2604.8816,271.0309 c-36.4128,12.1761-59.782,32.8907-59.782,72.519c0,15.5472,0.7327,18.4983,6.7468,27.1765 c8.833,12.7461,17.5103,17.1404,30.9978,15.6982c5.7974-0.62,12.3516-1.8805,14.5647-2.8014 c5.5981-2.3291,5.1165,2.324-0.8591,8.2993c-4.3433,4.3435-6.7803,4.7608-22.0564,3.7807 c-52.5024-3.3694-66.8159-89.2882,6.2456-128.9137c55.8228-30.276,125.6594-6.9211,130.8376,7.9344 C2719.2715,296.7963,2661.3506,252.1481,2604.8816,271.0309z M2861.448,368.0314c-10.5085,4.8066-14.9302,5.5689-26.5215,4.5725 c-40.1741-3.4532-68.425-29.9861-105.8152-99.3795c-13.7759-25.567-23.7246-35.3579-18.3708-40.7116 c1.5723-1.5723,107.1169-2.111,147.2773,66.0042c15.3967,26.114,18.1118,24.36,17.3933,35.0358 C2874.0325,354.01,2890.3904,354.7926,2861.448,368.0314z M4345.5688,236.8689c14.2051,25.2569,15.52,17.8925,14.4775,44.2175 c-0.7114,17.9611-1.5,21.019-7.4204,28.7772c-12.231,16.0272-30.0898,24.6703-66.9531,32.4041 c-15.1733,3.1834-16.9116,3.1051-30.3438-1.3649c-38.644-12.8596-32.5293-28.0943-37.2207-28.0943 c-6.2388-6.2411,1.127-8.9847,3.5396-2.6976c2.2954,5.9818,18.1528,12.5482,30.3042,12.5482 c30.8408,0,45.7412-16.0135,55.6279-59.7819C4314.3003,233.1262,4330.4893,210.056,4345.5688,236.8689z M3901.114,369.8783 c-6.9333-3.2281-12.0715-7.1331-12.0715-9.1748c0-4.1355,0.8713-4.1877,20.6938-1.2395 c47.0137,6.9915,86.9792-29.4779,80.8877-8.7731c-3.0112,10.2346-6.3557,12.2563-30.6541,18.5291 C3929.4844,377.0897,3916.906,377.2306,3901.114,369.8783z M4410.9639,305.6822c-4.5396,3.3702-12.2212,8.5787-15.0273,14.1076 c-4.084,8.047-33.3047,33.0037-44.9707,38.4084c-6.0884,2.8208-12.4058,6.2223-14.0381,7.5586 c-3.8867,3.1817-59.8516,19.1328-93.7036,4.7067c-29.6489-12.6366-52.0132-46.0511-94.2217-56.7029 c-24.0947-6.0806-72.0317-6.9102-87.3335-1.5112c-19.6104,6.9187-43.8643,30.5685-43.8643,42.7712 c0,5.9408,9.9219,15.9236,15.8262,15.9236c9.7358,0,15.6382-15.6073,9.5474-25.2399c-2.6572-4.202,3.3174-11.549,9.3914-11.549 c9.946,0,12.386,24.0706,3.7407,36.8992c-16.6626,24.7254-52.3015,18.793-52.3015-10.4005 c0-59.4143,86.9321-79.9367,149.8975-59.1484c12.2573,4.0468,23.3804,7.3577,24.7178,7.3577c2.8926,0,3.1768-9.06,0.4209-13.4074 c-4.3799-6.9094,4.6104-57.7148,47.2896-64.4563c18.0972-2.8581,53.3159-3.472,65.0127-1.1325 c6.6138,1.3228,9.6563,1.2637,2.6802,20.3639c-7.7729,21.2812,1.4126,26.5893-14.2417,43.572 c-26.8779,29.157-57.3428,4.3404-57.3428-8.3364c0-5.3593,6.6416-20.2899,9.0259-20.2899c3.1934,0,11.7368-9.5256,10.4341-11.6338 c-3.3428-5.4082-33.5376-2.9331-42.7217,27.7199c-16.4873,55.0307,78.3921,115.7279,158.1855,41.6081 c29.7637-27.6477,24.1631-95.7862-44.9185-142.5703c-58.3608-39.5223-84.1616-35.4459-121.0459-35.5331 c-50.5264-0.1207-62.6177,1.4648-113.1968,14.8419c-134.1335,35.474-279.4819,184.4122-333.9109,196.3662 c-25.6833,5.6411,8.6348,36.5036-10.9314,62.8508c-12.1882,16.413-48.9302,18.1797-54.3391-23.1642 c-1.4229-10.8779-1.4016-10.9217,5.3357-10.9217c8.0557,0,16.1406,7.7436,16.1406,15.4599 c0,13.3878,18.3945,29.356,18.3945,0.9136c0-6.8732-1.6851-10.1535-8.6226-16.785 c-14.009-13.3917-14.0308-13.3956-66.4209-11.8914c-44.1458,1.2676-88.5369-0.209-132.1333-7.6982 c-44.8184-7.6991-84.2085-24.6997-126.3433-40.4931c-72.1289-27.0357-223.9236-119.3323-234.4084-124.568 c-14.1626-7.0737-17.0415-14.9508-20.9683-11.0241c-7.5063,7.5052,37.8816,56.7256-22.1011,130.5972 c-10.1919,12.5519-19.0117,31.7339-19.0117,41.3479c0,2.0551,2.8218,9.4998,6.271,16.5436 c18.6975,38.1859,66.0369,15.3368,59.1055,3.9028c-5.0752-8.3709-9.2803-8.9794-17.0242-2.4635 c-29.5889,24.8977-47.1826-42.1276-1.9739-42.1276c17.127,0,47.4497,32.2813,37.9976,54.7508 c-1.9619,4.664-4.1418,11.176-4.844,14.4714c-1.8391,8.6277-17.4875,18.2499-32.1392,19.7622 c-23.5222,2.4274-56.5908-23.0576-56.5908-27.3329c0-1.1626-2.5867-5.92-5.748-10.5728 c-10.3281-15.1993-1.2566-37.4573-20.2952-27.3781c-25.4922,13.4951-79.8384,11.8928-106.1667,11.9397 c-34.584-14.7043-56.3328-22.5057-56.3328-34.9625c0-28.5095,44.7952,39.6032,158.8586,0.4631 c18.2048-6.247,46.6255-33.2883,57.7024-54.9018c30.8501-60.1968-3.4768-116.8383-60.2087-144.4309 c-128.915-62.7012-325.1221-38.1776-325.6487-38.7042c-4.5776-4.5759-43.6184,6.9661-66.335,6.9661 c-28.2395,0-110.749,34.6173-37.823-14.3721c37.167-24.9678,40.6428-13.9481,98.2893-24.5064 c11.3623-2.0812,142.5737-11.8035,288.9829,32.4092c38.2466,11.5488,24.2705,5.8718,68.9792,20.202 c166.4551,53.3533,204.9207-0.3683,179.6772-22.0797c-14.1211-12.1469-30.3291,1.3317-21.8123,14.9699 c5.5725,8.923,1.4592,11.0632-23.7371,12.3498c-13.3347,0.6809-24.7595,0.2759-26.0356-0.9229 c-3.5159-3.3022,9.8618-26.7308,22.2847-39.0278c66.5781-65.906,140.7612,102.9838-46.303,73.8839 c-64.9917-10.1108,34.1897,26.6106,78.9824,58.1874c20.6638,14.5674,75.5244,39.0003,89.4119,46.7534 c127.1289,70.9801,261.4995,91.1259,350.9104,76.5057c72.384-11.8358,80.7351-26.7278,94.4597-30.8304 c27.6274-8.2583,80.4673-66.8493,80.4673-79.4495c0.0044-1.9456,2.1826-7.6364,4.8396-12.6462 c10.666-20.1088,7.0708-62.4632-7.4575-87.8563c-10.1575-17.7534-34.5325-41.7114-52.6057-51.7054 c-15.8738-8.7776-38.9968-13.4949-66.1343-13.4927c-18.2754,0.0014-69.3745,14.3883-82.4514,23.2136 c-12.606,8.5079-18.7744,10.1434-26.7771,7.1008c-32.1477-12.2221,71.1008-55.919,127.7593-48.4128 c76.2158,10.097,86.4148,40.4766,98.9631,38.5554c10.1672-1.5563,30.6624-87.0654,86.6709-67.5659 c15.2463,5.3082,20.6699,2.3189,20.6699,7.1907c0,4.8751,27.7566,45.3021-15.4888,69.4731 c-5.3027,2.9637-38.8794,3.9539-48.3167,1.425c-6.6919-1.7932-6.5996-7.3989,0.3472-21.0454 c10.7859-21.1883,18.0837-24.3538,37.6497-16.3303c19.9573,8.1841,25.9827-23.1097-4.082-20.2884 c-48.1438,4.5179-64.2393,62.0922-51.5891,97.0872c5.1555,14.2613,7.6663,60.1952-2.1345,86.8824 c-24.7087,67.2837,47.6436-64.5104,238.8176-95.374c117.0186-18.8913,153.6699,15.3547,228.8418,15.3547 c42.2422,0,44.7656-7.2768,58.1782-26.6314c-7.9844-10.6934-14.2935-20.1774-22.707-2.66 c-7.8501,16.3438-10.3633,17.7949-30.8174,17.7949c-31.6157,0-23.8696,1.9286,11.9785-38.5712 c15.8945-17.9566,10.771-15.5187,22.7847-12.8194c27.5073,6.1805,49.7837,43.2956,8.8066,71.6964 c-10.1934,7.0652-10.7646,7.1732-38.5112,7.2285c-15.4907,0.0317-28.1655,0.7968-28.1665,1.7009 c-0.0068,5.6176,27.3789,3.0294,91.9702,108.9882c84.8535,139.2002,395.7759,34.8691,309.7061-17.6108 c-22.4033-13.6603-36.0054,11.1243-25.7402,30.8062c4.1084,7.8777,2.9844,10.1498-7.1069,14.3661 c-11.5503,4.826-13.3774,4.1296-18.8794-7.194c-27.4233-56.4475,51.8545-92.1855,79.7935-41.8309 c5.8057,10.4631,5.9033,13.5143,1.0713,33.3722C4732.5894,361.1073,4504.9688,393.8675,4410.9639,305.6822z M4974.2271,473.8384 c-9.6694-57.5293-59.6558-78.8491-114.8779-82.5515c-79.5283-5.3323-92.0098-8.7798-124.2871-34.3296 c0-0.231-15.7354-12.4571-15.7651-14.7543c-0.0796-6.0014,11.7412-10.6003,14.7466-5.7373 c0.7363,1.1913,28.6074,28.0172,69.9194,31.026c28.6313,2.0849,81.2686,10.7224,100.2227,16.446 c29.2529,8.8335,41.1309,15.3205,56.4424,30.825C5001.3154,455.9641,4982.3008,521.8769,4974.2271,473.8384z"/> </g> <g> <path d="M0,504.4223l9.9696-1.5013c6.9113-1.0408,18.9207-3.7555,22.7245-10.6263c3.67-6.6293-1.4502-12.6176,0.0243-20.3166 c2.328-12.1553,7.545-21.5126,15.8167-30.3123c35.8494-38.1375,80.2753-37.199,136.1502-40.4784 c49.993-2.934,66.6628-18.8554,113.2455-53.1431c56.2567,33.192,194.8706,37.727,291.7302-21.0774 c47.5006,51.3607,74.8756,61.2238,128.1169,61.2238c75.8468,0,62.9915-23.6059,132.21-58.383 c16.0406-8.0596,16.2015-8.0874,47.6334-8.1542c60.4861-0.1309,24.8781,3.0958,24.8079,38.4847 c-0.0577,28.7446,32.3157,44.5684,56.905,39.8397c19.321-3.7171,21.3809-5.0593,27.0438-17.6176 c3.1099-6.8959,5.137-8.9034,7.8281-7.7512c19.0055,8.1371,49.0095,14.5915,68.2662,14.6853 c36.0156,0.1797,74.0868-69.2478,26.854-48.2343c-17.0609,7.5898-28.2712,8.9151-46.4047,5.4864 c-14.4877-2.7394-38.3688-11.034-49.0765-17.0458c-8.6828-4.8752-7.4184,3.0425-22.9319-14.6488 c-25.7243-29.3349-80.2003-42.8773-129.1829-32.1142c-20.1094,4.4187-24.388,3.4318-24.388-5.6239 c0-11.2213-18.8588-50.5925-46.6923-59.2267c-39.3298-12.1997-112.8717,3.0614-117.617-1.3088 c-4.0693-3.7473,20.008-22.2644,47.045-36.1809c36.2028-18.6344,53.3732-22.0654,101.1694-20.2157 c209.5687,8.1117,325.551,173.1857,421.3475,206.9045c8.8491,3.115,0.448,28.9545,1.119,35.9514 c1.5311,15.9646,10.9684,33.1563,26.7748,38.6353c27.4484,9.5144,64.6543-13.2905,64.6532-42.9948 c-0.0006-16.9085-3.8076-11.5926,39.259-9.9369c33.4061,1.2844,86.3455-1.9973,120.5426-7.4727 c34.871-5.583,147.124-46.2254,173.5974-60.5243c0.2303-0.1244,118.163-64.0178,124.1624-69.3987 c9.8148-8.8029,49.8313-29.8545,51.6797-29.8545c5.3383,0-11.1415,48.6424,25.0083,87.9632 c6.9711,7.583,4.7285,11.2537-7.3229,11.9855c-27.5314,1.6717-56.6774,35.4624-56.7083,65.7457 c-0.0533,31.4469,37.1752,60.9037,68.2611,56.2426c11.0028-1.6501,37.8636-14.1023,45.5752-21.128 c5.2458-4.7796,20.472-29.1353,23.9768-38.3536c2.85-7.496,8.1107-7.8,26.0244-1.5039 c18.4412,6.4816,84.8165,8.8486,121.693-8.3892c15.8811-7.4234,11.4661-8.0206,19.2429,1.2215 c18.7495,22.2831,62.1328,21.2178,88.6548,9.8495c13.3542-5.7244,39.0977-30.7245,59.5854-57.8649 c17.6523-23.3849,21.9058-26.4557,49.374-35.6496c56.3711-18.8673,101.7434-19.4847,128.5649,29.194 c9.8064,17.798,6.6555,37.5133-7.6201,47.6783l-7.187,5.1176c-29.3879-8.724-33.8132-10.6275-38.0715-7.0938 c-7.7195,6.4065,0.2441,29.9802,11.5847,34.2917c11.4199,4.3411,5.4426,13.2003,34.7432,9.051 c19.3994-2.7473,28.7212-8.4133,38.78-23.5715c11.3955-17.1729,12.8035-22.3348,12.8035-46.9454 c0-28.9832-4.9475-46.9207-15.9707-57.905c-30.5786-30.4707-71.2446-48.2676-113.1677-43.9206 c-12.144,1.2594-24.8547,3.3445-28.2458,4.6337c-17.05,6.4825-19.9556-0.7373-5.4705-13.5918 c16.4558-14.6032,9.2258-14.0194-33.8745-12.9257c-46.645,1.1841-39.0317,3.1063-43.3535-5.2515 c-5.0129-9.6937-24.6228-26.8622-36.8708-32.2798c-12.1206-5.3615-29.0569-6.1738-48.3982-2.3215 c-35.3965,7.0498-20.7363,6.3155-37.5012-18.3158c-6.7178-9.87-16.7761-39.0096-14.0479-40.6959 c2.2883-1.4143,78.3496-5.4218,105.5825-5.5627c232.606-1.2021,297.6519,92.3162,431.2739,102.5857 c17.5151,1.3461,19.8694,1.0508,22.835-2.8671c3.6509-4.8234,4.2791-9.9348,1.6931-13.7737 c-17.5239-5.8413-34.2336-7.4325-51.127-9.0563c-48.7107-4.6825-119.8613-44.0113-133.8152-48.3168 c-9.4685-2.9225-28.3711-19.9186-52.4285-34.6288c-65.3872-39.983-41.5813-48.3816-126.4617-53.6449 c-209.3413-12.9826-299.1553,30.3321-389.7319,55.0385c-71.2968,19.4454-57.3849,13.2429-70.6792,17.4244 c-6.8936,2.1684-17.8154-27.9929-19.8967-32.2597c-6.025-12.3514-12.9888-22.3472-25.0466-29.5954 c-21.9921-13.2198-52.3879-13.0537-71.954,4.6254c-17.9929,16.2578-24.6216,33.8445-21.7289,57.6471 c1.5001,12.3453,2.5243,14.0967,15.9534,27.2823c17.8796,17.5558,31.1919,22.2243,62.7368,22 c47.2683-0.3324,4.149,9.399-59.0771,44.6767c-95.3602,53.2048-180.0193,81.9355-194.9064,88.5939 c-60.1266,26.8924-174.803,21.9024-200.5581,18.1823c-145.2507-20.9829-240.6749-159.9479-113.7974-228.1035 c33.9792-18.2499,49.5239-14.166,65.8055-12.2622c41.4629,4.8477,68.6696,19.6412,68.6696,22.9246 c0,5.3544-8.5986,5.9463-17.7281,26.3311c-21.7284,48.5171,32.4658,82.8694,61.7236,155.3217 c16.7303,41.4315,20.5353,10.3469,30.8851,10.3469c3.5106,0,23.9188-22.8101,27.6665-26.8579 c30.0485-2.2726,67.3583-4.7326,90.5231-50.0287c13.213-25.8358-0.8766-28.9348,29.9625-35.7619 c12.7172-2.8149,49.3357-19.6566,59.4799-27.3559c16.4923-12.5167-27.1514-24.8512-42.2354-27.8527 c-21.5267-4.2831-29.4896-8.5758-45.1884-24.3591c-8.4692-8.5148-17.7292-13.2361-27.0481-19.5437 c-21.7368-14.713-39.3923-28.4214-66.2561-33.0517c-10.0309-1.7289-26.0935-4.6477-35.8286-0.6096 c-7.6311,3.1654-14.2804,12.7958-19.7681,18.5067c1.1621-1.2093-26.6593-17.724-28.2719-18.4826 c-18.4288-8.6692-39.3488-15.6575-59.2937-19.7158c-42.7335-8.6952-88.783-3.3161-127.8539,16.2825 c-23.5377,11.8076-22.1674,12.1183-32.9165-7.4665c-12.5817-22.9236-9.178-11.8051-27.9978-28.5779 c-15.2606-13.6019-23.3167-16.1038-45.9019-14.2564c-30.7615,2.5157-45.7402,20.7908-52.9258,50.0997 c-2.7683,11.2911-2.5797,12.7573,3.4731,26.9991c11.6579,27.4303,25.1428,34.6018,65.1049,34.6243 c46.514,0.0356,17.0549,3.6621,16.1216,63.765c-0.2765,17.7686-0.2164,26.4557-8.2189,19.6019 c-13.0127-11.1457-98.3101-56.91-106.0708-56.91c-1.1297,0-4.9831-1.4564-8.5632-3.2362 c-20.1551-10.0208-46.1317-14.6029-48.0428-17.6939c-1.4044-2.2721-17.985-3.1119-49.0053-8.1034 c-105.1255-16.916-184.1074,23.4887-195.7246,9.4894c-5.5056-6.6335-3.6822,3.264-19.2216-20.891 c-17.8104-27.685-49.6302-47.1062-79.1515-20.8604c-18.0441,16.042-19.9974,40.2504-9.3768,60.6266 c19.9633,38.299,54.5131,28.3414,56.4101,34.0399c1.6069,4.8279-15.9295,21.3882-18.6657,24.7072 c-10.4014,12.617-19.5014,25.5449-28.4656,39.2162c-9.0512,13.8041-18.1627,27.6248-29.0875,40.0443 c-5.7609,6.549-17.7693,23.5699-27.5159,23.6264c-6.1243,0-55.5523,31.4702-148.4331,19.4652 c-45.9036-5.9332-47.972-6.9032-40.8511-19.1607c13.5385-23.3034,11.4265-53.6911-7.2797-73.7166 c-23.9953-25.6876-67.8875-25.6269-91.7716-0.0943c-23.6435,25.2754-19.5757,61.8946,3.047,86.3052 c7.8851,8.5083,7.3293,12.1259-3.3661,21.9024c-28.285,25.855-66.5444,23.5984-105.8039,29.5974 C3.0322,384.6581,3.9436,441.6609,0,504.4223z M1456.6908,251.6384c20.1837-61.9309-2.0991-60.4297,44.5737-58.3589 c24.4321,1.0843,35.4033-1.9111,23.2592,21.3884c-0.8434,0-8.7838,23.2334-43.7185,36.7055 C1462.7495,258.3365,1454.4783,258.4274,1456.6908,251.6384z M1390.9709,112.2296c22.48,5.6422,50.4679,40.5957,55.7623,69.6407 c7.9821,43.7858-11.574,71.4352-11.574,78.3315c0,4.1223-20.2935,25.6685-24.1755,25.6685 c-3.5034,0-25.2891-47.291-40.4758-70.1288c-11.8193-17.775-23.5707-40.4076-25.8071-49.7039 c-1.9639-8.1626,4.1863-27.8459,11.3668-36.3793C1363.8674,120.3889,1383.8075,110.4319,1390.9709,112.2296z M1405.2686,91.4565 c0-1.4912,4.8257-6.471,10.7241-11.0662c48.1141-37.485,138.1335,69.8214,175.3932,69.8214c6.9954,0,5.9703,7.8915-1.4651,11.2793 c-5.5007,0-48.6876,22.6075-112.5365,11.4578c-20.043-3.5004-15.4722,0.4979-19.9985-15.7827 C1447.2433,120.6836,1405.2686,99.9882,1405.2686,91.4565z M2027.2382,224.5292c-17.9584,59.6673,14.509,99.1336,11.6392,106.6131 c-3.058,7.9684-84.074-3.7776-89.7843-13.0175c-0.7115-1.1511-6.0228-4.4549-11.8027-7.3414 c-21.6721-10.8236-38.5575-44.4588-38.7177-70.8989c-0.3209-53.069,35.2723-83.8527,125.2079-108.2887 c33.9238-9.2171,68.5986-16.3806,71.2778-14.7246C2106.0413,123.6583,2037.5006,190.4295,2027.2382,224.5292z M2119.9529,300.8161 c-5.7273,11.295-6.0469,11.5184-18.2358,12.7444c-17.2981,1.739-34.7014,13.6976-39.7019,13.6976 c-9.4253,0-33.5892-58.4479-15.6606-97.0196c4.7119-10.137,3.8682-18.7621,36.5781-58.0226 c10.3196-12.3877,6.1616-18.0079,10.8857-21.9287c5.5762-4.6278,13.4441,14.9548,14.946,20.3148 C2112.2927,183.1954,2153.7629,234.1401,2119.9529,300.8161z M2161.6528,252.6345c-4.5876,5.5282-8.8279,3.8001-10.1274-4.1276 c-9.0811-55.3981-13.4204-49.016-1.7813-53.8793c10.7083-4.4746,44.3186-4.681,56.6626,4.7345 c24.8372,18.9438,20.2356,20.7124-2.1702,29.8691C2184.061,237.4757,2165.9922,247.4061,2161.6528,252.6345z M2288.4233,274.7241 c5.1782-14.8556,75.0149-38.2105,130.8376-7.9344c73.0615,39.6255,58.748,125.5443,6.2456,128.9137 c-15.2761,0.9801-17.7131,0.5627-22.0564-3.7807c-5.9756-5.9753-6.4573-10.6284-0.8591-8.2993 c2.2131,0.9209,8.7673,2.1814,14.5647,2.8014c13.4875,1.4421,22.1648-2.9521,30.9978-15.6982 c6.0142-8.6783,6.7468-11.6293,6.7468-27.1765c0-39.6284-23.3691-60.3429-59.782-72.519 C2338.6494,252.1481,2280.7285,296.7963,2288.4233,274.7241z M2124.5889,333.5528c-0.7185-10.6757,1.9966-8.9217,17.3933-35.0358 c40.1604-68.1152,145.7051-67.5765,147.2773-66.0042c5.3538,5.3537-4.595,15.1446-18.3708,40.7116 c-37.3901,69.3934-65.6411,95.9263-105.8152,99.3795c-11.5913,0.9964-16.0129,0.2341-26.5215-4.5725 C2109.6096,354.7926,2125.9675,354.01,2124.5889,333.5528z M692.4201,262.8773c9.8863,43.7685,24.7869,59.7819,55.6279,59.7819 c12.1511,0,28.0084-6.5664,30.3041-12.5482c2.4123-6.2871,9.7783-3.5436,3.5394,2.6976c-4.6912,0,1.4233,15.2347-37.2206,28.0943 c-13.4323,4.4701-15.1706,4.5484-30.3437,1.3649c-36.8635-7.7338-54.7221-16.3769-66.9532-32.4041 c-5.9206-7.7582-6.709-10.8162-7.4205-28.7772c-1.0423-26.325,0.2724-18.9607,14.4779-44.2175 C669.5107,210.056,685.6996,233.1262,692.4201,262.8773z M1040.0302,369.2201c-24.2985-6.2728-27.643-8.2946-30.6541-18.5291 c-6.0916-20.7048,33.8738,15.7646,80.8876,8.7731c19.8225-2.9482,20.6937-2.896,20.6937,1.2395 c0,2.0417-5.1381,5.9467-12.0713,9.1748C1083.0941,377.2306,1070.5155,377.0897,1040.0302,369.2201z M247.8701,280.7988 c-4.8321-19.8579-4.7342-22.9091,1.0711-33.3722c27.9391-50.3546,107.2172-14.6166,79.7935,41.8309 c-5.5016,11.3236-7.329,12.02-18.8793,7.194c-10.0912-4.2163-11.2153-6.4884-7.1068-14.3661 c10.2653-19.682-3.3371-44.4666-25.7403-30.8062c-86.0698,52.4799,224.8528,156.811,309.7062,17.6108 c64.5911-105.9588,91.9772-103.3706,91.9702-108.9882c-0.0011-0.9041-12.6759-1.6692-28.1664-1.7009 c-27.7469-0.0553-28.3177-0.1634-38.5114-7.2285c-40.9771-28.4008-18.7009-65.5158,8.8065-71.6964 c12.0141-2.6994,6.8903-5.1372,22.7851,12.8194c35.8477,40.4998,43.5939,38.5712,11.9785,38.5712 c-20.4543,0-22.9672-1.4511-30.8175-17.7949c-8.4138-17.5174-14.7228-8.0334-22.707,2.66 c13.4124,19.3547,15.9362,26.6314,58.1781,26.6314c75.1718,0,111.8231-34.246,228.842-15.3547 c191.174,30.8636,263.5261,162.6577,238.8174,95.374c-9.8005-26.6872-7.2899-72.6211-2.1345-86.8824 c12.6503-34.9951-3.4452-92.5693-51.5889-97.0872c-30.0647-2.8213-24.0393,28.4725-4.0823,20.2884 c19.566-8.0234,26.8639-4.858,37.6498,16.3303c6.9468,13.6465,7.0391,19.2522,0.3472,21.0454 c-9.4371,2.5289-43.014,1.5387-48.3165-1.425c-43.2456-24.171-15.4889-64.598-15.4889-69.4731 c0-4.8718,5.4237-1.8825,20.6699-7.1907c56.0085-19.4995,76.5038,66.0096,86.671,67.5659 c12.5481,1.9212,22.7471-28.4585,98.9629-38.5554c56.6584-7.5062,159.907,36.1907,127.7593,48.4128 c-8.0026,3.0425-14.171,1.407-26.7771-7.1008c-13.0767-8.8253-64.1759-23.2122-82.4513-23.2136 c-27.1375-0.0023-50.2605,4.7151-66.1342,13.4927c-18.0734,9.9941-42.4485,33.9521-52.6058,51.7054 c-14.5284,25.3931-18.1237,67.7475-7.4576,87.8563c2.6572,5.0098,4.8352,10.7005,4.8397,12.6462 c0,12.6002,52.84,71.1912,80.4673,79.4495c13.7246,4.1025,22.0758,18.9945,94.4597,30.8304 c89.4109,14.6201,223.7816-5.5257,350.9105-76.5057c13.8873-7.7531,68.7478-32.186,89.4119-46.7534 c44.7926-31.5768,143.974-68.2982,78.9824-58.1874c-187.0642,29.0998-112.8813-139.79-46.303-73.8839 c12.4227,12.297,25.8003,35.7257,22.2845,39.0278c-1.2762,1.1988-12.7008,1.6038-26.0355,0.9229 c-25.1964-1.2866-29.3097-3.4268-23.7371-12.3498c8.5168-13.6382-7.6913-27.1168-21.8123-14.9699 c-25.2435,21.7114,13.222,75.4331,179.6771,22.0797c44.7087-14.3302,30.7325-8.6532,68.9791-20.202 c146.4093-44.2127,277.6207-34.4904,288.983-32.4092c57.6465,10.5583,61.1223-0.4614,98.2893,24.5064 c72.926,48.9893-9.5835,14.3721-37.823,14.3721c-22.7166,0-61.7573-11.542-66.335-6.9661 c-0.5266,0.5266-196.7336-23.997-325.6487,38.7042c-56.7319,27.5926-91.059,84.2341-60.2089,144.4309 c11.0769,21.6135,39.4977,48.6548,57.7024,54.9018c114.0636,39.1401,158.8588-28.9727,158.8588-0.4631 c0,12.4568-21.7488,20.2581-56.3328,34.9625c-26.3282-0.0469-80.6746,1.5554-106.1666-11.9397 c-19.0386-10.0793-9.967,12.1788-20.2952,27.3781c-3.1615,4.6528-5.7483,9.4102-5.7483,10.5728 c0,4.2753-33.0686,29.7603-56.5906,27.3329c-14.6516-1.5123-30.3002-11.1344-32.1392-19.7622 c-0.7023-3.2954-2.8823-9.8074-4.8442-14.4714c-9.452-22.4695,20.8706-54.7508,37.9978-54.7508 c45.2087,0,27.615,67.0254-1.974,42.1276c-7.7439-6.5159-11.949-5.9074-17.0242,2.4635 c-6.9313,11.434,40.408,34.2831,59.1055-3.9028c3.4492-7.0439,6.2711-14.4885,6.2711-16.5436 c0-9.614-8.8199-28.796-19.012-41.3479c-59.9825-73.8716-14.5946-123.092-22.101-130.5972 c-3.9268-3.9267-6.8057,3.9505-20.9683,11.0241c-10.4847,5.2357-162.2794,97.5323-234.4083,124.568 c-42.135,15.7934-81.525,32.794-126.3434,40.4931c-43.5964,7.4892-87.9875,8.9659-132.1334,7.6982 c-52.3901-1.5042-52.4117-1.5002-66.4209,11.8914c-6.9374,6.6315-8.6223,9.9118-8.6223,16.785 c0,28.4424,18.3944,12.4742,18.3944-0.9136c0-7.7163,8.0848-15.4599,16.1406-15.4599c6.7373,0,6.7587,0.0438,5.3356,10.9217 c-5.4088,41.3439-42.1508,39.5772-54.339,23.1642c-19.5662-26.3473,14.752-57.2097-10.9315-62.8508 c-54.429-11.954-199.7771-160.8922-333.9107-196.3662c-50.5791-13.3771-62.6707-14.9626-113.197-14.8419 c-36.8841,0.0872-62.6852-3.9892-121.0457,35.5331c-69.0816,46.7841-74.6822,114.9226-44.9187,142.5703 c79.7935,74.1199,174.6732,13.4226,158.1858-41.6081c-9.1841-30.653-39.3792-33.1281-42.7216-27.7199 c-1.3029,2.1082,7.2404,11.6338,10.4339,11.6338c2.384,0,9.0257,14.9306,9.0257,20.2898c0,12.6768-30.4647,37.4934-57.3425,8.3364 c-15.6542-16.9827-6.4687-22.2907-14.2415-43.572c-6.9763-19.1003-3.9337-19.0411,2.6802-20.3639 c11.6967-2.3394,46.9154-1.7256,65.0123,1.1325c42.6792,6.7415,51.6696,57.5469,47.2898,64.4563 c-2.756,4.3474-2.4716,13.4074,0.421,13.4074c1.3372,0,12.4601-3.3109,24.7175-7.3577 c62.9653-20.7883,149.8973-0.2659,149.8973,59.1484c0,29.1935-35.6388,35.1259-52.3013,10.4005 c-8.6454-12.8286-6.2055-36.8992,3.7405-36.8992c6.0742,0,12.0486,7.347,9.3915,11.549 c-6.091,9.6325-0.1886,25.2399,9.5472,25.2399c5.9043,0,15.8262-9.9828,15.8262-15.9236 c0-12.2027-24.2538-35.8525-43.8642-42.7712c-15.3019-5.3991-63.2387-4.5694-87.3334,1.5112 c-42.2087,10.6518-64.573,44.0663-94.2221,56.7029c-33.8517,14.4261-89.8167-1.5249-93.7034-4.7067 c-1.6324-1.3363-7.9496-4.7378-14.038-7.5586c-11.6661-5.4047-40.8867-30.3614-44.9706-38.4084 c-2.8065-5.5289-10.4881-10.7374-15.0277-14.1076C495.0313,393.8675,267.4105,361.1073,247.8701,280.7988z M39.3722,414.7627 c15.3115-15.5046,27.1892-21.9916,56.4424-30.825c18.9538-5.7235,71.5914-14.3611,100.2224-16.446 c41.3119-3.0089,69.1831-29.8347,69.9194-31.026c3.0055-4.863,14.8265-0.2641,14.7468,5.7373 c-0.0296,2.2973-15.765,14.5233-15.765,14.7543c-32.2773,25.5497-44.759,28.9973-124.287,34.3296 c-55.2224,3.7025-105.2085,25.0223-114.8782,82.5515C17.699,521.8769-1.3154,455.9641,39.3722,414.7627z"/> </g> </g> </svg>